<mxfile host="app.diagrams.net" modified="2023-07-20T15:16:10.002Z" agent="Mozilla/5.0 (Windows NT 10.0; Win64; x64) AppleWebKit/537.36 (KHTML, like Gecko) Chrome/114.0.0.0 Safari/537.36" etag="WdZxrQ4AMuHOCJ_RUCtT" version="21.6.3" type="github">
  <diagram name="Сторінка-1" id="X34uXBFHBQ1U8Xl85ax0">
    <mxGraphModel dx="538" dy="277" grid="1" gridSize="10" guides="1" tooltips="1" connect="1" arrows="1" fold="1" page="1" pageScale="1" pageWidth="827" pageHeight="1169" math="0" shadow="0">
      <root>
        <mxCell id="0" />
        <mxCell id="1" parent="0" />
        <mxCell id="awaDhILhFS4YZEdiU3oN-5" value="&lt;font style=&quot;font-size: 18px;&quot;&gt;AddressBook&lt;/font&gt;" style="swimlane;whiteSpace=wrap;html=1;strokeColor=#0F8B8D;labelBackgroundColor=none;fillColor=#FAE5C7;fontColor=#143642;" vertex="1" parent="1">
          <mxGeometry x="300" y="30" width="210" height="340" as="geometry">
            <mxRectangle x="300" y="30" width="120" height="30" as="alternateBounds" />
          </mxGeometry>
        </mxCell>
        <mxCell id="awaDhILhFS4YZEdiU3oN-7" value="- data: dict" style="text;html=1;strokeColor=none;fillColor=none;align=center;verticalAlign=middle;whiteSpace=wrap;rounded=0;fontColor=#143642;fontSize=14;" vertex="1" parent="awaDhILhFS4YZEdiU3oN-5">
          <mxGeometry x="10" y="40" width="90" height="30" as="geometry" />
        </mxCell>
        <mxCell id="awaDhILhFS4YZEdiU3oN-10" value="- index: int&amp;nbsp;" style="text;html=1;strokeColor=none;fillColor=none;align=center;verticalAlign=middle;whiteSpace=wrap;rounded=0;fontColor=#143642;fontSize=14;" vertex="1" parent="awaDhILhFS4YZEdiU3oN-5">
          <mxGeometry x="10" y="68" width="90" height="30" as="geometry" />
        </mxCell>
        <mxCell id="awaDhILhFS4YZEdiU3oN-12" value="" style="shape=crossbar;whiteSpace=wrap;html=1;rounded=1;strokeColor=#0F8B8D;fontColor=#143642;fillColor=#FAE5C7;" vertex="1" parent="awaDhILhFS4YZEdiU3oN-5">
          <mxGeometry y="120" width="220" height="20" as="geometry" />
        </mxCell>
        <mxCell id="awaDhILhFS4YZEdiU3oN-16" value="&lt;div style=&quot;font-size: 13px;&quot;&gt;&lt;font style=&quot;font-size: 13px;&quot;&gt;+ add_record(record)&amp;nbsp; &amp;nbsp; &amp;nbsp; &amp;nbsp; &amp;nbsp; &amp;nbsp; &amp;nbsp;&lt;/font&gt;&lt;/div&gt;&lt;div style=&quot;font-size: 13px;&quot;&gt;&lt;font style=&quot;font-size: 13px;&quot;&gt;&amp;nbsp;+ show_phones(args)&amp;nbsp; &amp;nbsp; &amp;nbsp; &amp;nbsp; &amp;nbsp; &amp;nbsp; &amp;nbsp;&lt;/font&gt;&lt;/div&gt;&lt;div style=&quot;font-size: 13px;&quot;&gt;&lt;span style=&quot;background-color: initial;&quot;&gt;&lt;font style=&quot;font-size: 13px;&quot;&gt;+ iterator()&amp;nbsp; &amp;nbsp; &amp;nbsp; &amp;nbsp; &amp;nbsp; &amp;nbsp; &amp;nbsp; &amp;nbsp; &amp;nbsp; &amp;nbsp; &amp;nbsp;&lt;/font&gt;&lt;/span&gt;&lt;/div&gt;&lt;div style=&quot;font-size: 13px;&quot;&gt;&lt;span style=&quot;background-color: initial;&quot;&gt;&lt;font style=&quot;font-size: 13px;&quot;&gt;+ __iter__()&amp;nbsp; &amp;nbsp; &amp;nbsp; &amp;nbsp; &amp;nbsp; &amp;nbsp; &amp;nbsp; &amp;nbsp; &amp;nbsp; &amp;nbsp;&lt;/font&gt;&lt;/span&gt;&lt;/div&gt;&lt;div style=&quot;font-size: 13px;&quot;&gt;&lt;font style=&quot;font-size: 13px;&quot;&gt;+ __next__()&amp;nbsp; &amp;nbsp; &amp;nbsp; &amp;nbsp; &amp;nbsp; &amp;nbsp; &amp;nbsp; &amp;nbsp; &amp;nbsp; &amp;nbsp;&amp;nbsp;&lt;span style=&quot;background-color: initial;&quot;&gt;&amp;nbsp; &amp;nbsp; +search_in(args)&amp;nbsp; &amp;nbsp; &amp;nbsp; &amp;nbsp; &amp;nbsp; &amp;nbsp; &amp;nbsp;&amp;nbsp;&lt;/span&gt;&lt;/font&gt;&lt;/div&gt;&lt;div style=&quot;font-size: 13px;&quot;&gt;&lt;font style=&quot;font-size: 13px;&quot;&gt;+ add_contact(args)&amp;nbsp; &amp;nbsp; &amp;nbsp; &amp;nbsp; &amp;nbsp;&lt;/font&gt;&lt;/div&gt;&lt;div style=&quot;font-size: 13px;&quot;&gt;&lt;span style=&quot;background-color: initial;&quot;&gt;&lt;font style=&quot;font-size: 13px;&quot;&gt;+ delete_contact(contact_name)&amp;nbsp;&amp;nbsp;&lt;/font&gt;&lt;/span&gt;&lt;/div&gt;&lt;div style=&quot;font-size: 13px;&quot;&gt;&lt;font style=&quot;font-size: 13px;&quot;&gt;+ edit_contact(contact_name)&amp;nbsp; &amp;nbsp; &amp;nbsp;&lt;/font&gt;&lt;/div&gt;&lt;div style=&quot;font-size: 13px;&quot;&gt;&lt;font style=&quot;font-size: 13px;&quot;&gt;+ birthday_in_days(args)&amp;nbsp;&lt;/font&gt;&lt;/div&gt;&lt;div style=&quot;font-size: 13px;&quot;&gt;&lt;font style=&quot;font-size: 13px;&quot;&gt;+ show_all_cont()&lt;/font&gt;&lt;/div&gt;" style="text;html=1;strokeColor=none;fillColor=none;align=left;verticalAlign=middle;whiteSpace=wrap;rounded=0;fontColor=#143642;" vertex="1" parent="awaDhILhFS4YZEdiU3oN-5">
          <mxGeometry x="10" y="120" width="200" height="220" as="geometry" />
        </mxCell>
        <mxCell id="awaDhILhFS4YZEdiU3oN-17" style="edgeStyle=orthogonalEdgeStyle;rounded=0;orthogonalLoop=1;jettySize=auto;html=1;exitX=0.5;exitY=1;exitDx=0;exitDy=0;strokeColor=#A8201A;fontColor=#143642;fillColor=#FAE5C7;" edge="1" parent="awaDhILhFS4YZEdiU3oN-5" source="awaDhILhFS4YZEdiU3oN-16" target="awaDhILhFS4YZEdiU3oN-16">
          <mxGeometry relative="1" as="geometry" />
        </mxCell>
        <mxCell id="awaDhILhFS4YZEdiU3oN-11" value="- __iterator: Iterator&amp;nbsp;" style="text;html=1;strokeColor=none;fillColor=none;align=center;verticalAlign=middle;whiteSpace=wrap;rounded=0;fontColor=#143642;fontSize=14;" vertex="1" parent="1">
          <mxGeometry x="310" y="126" width="140" height="30" as="geometry" />
        </mxCell>
        <mxCell id="awaDhILhFS4YZEdiU3oN-18" value="" style="rounded=0;whiteSpace=wrap;html=1;" vertex="1" parent="1">
          <mxGeometry x="320" y="441" width="160" height="40" as="geometry" />
        </mxCell>
        <mxCell id="awaDhILhFS4YZEdiU3oN-19" value="Field    " style="text;html=1;strokeColor=none;fillColor=none;align=center;verticalAlign=middle;whiteSpace=wrap;rounded=0;fontColor=#143642;fontSize=18;" vertex="1" parent="1">
          <mxGeometry x="332.5" y="446" width="135" height="30" as="geometry" />
        </mxCell>
        <mxCell id="awaDhILhFS4YZEdiU3oN-20" value="" style="rounded=0;whiteSpace=wrap;html=1;" vertex="1" parent="1">
          <mxGeometry x="320" y="481" width="160" height="30" as="geometry" />
        </mxCell>
        <mxCell id="awaDhILhFS4YZEdiU3oN-21" value="&lt;font style=&quot;font-size: 13px;&quot;&gt;- value&lt;/font&gt;" style="text;html=1;strokeColor=none;fillColor=none;align=left;verticalAlign=middle;whiteSpace=wrap;rounded=0;fontColor=#143642;fontSize=18;" vertex="1" parent="1">
          <mxGeometry x="335.5" y="481" width="124.5" height="25" as="geometry" />
        </mxCell>
        <mxCell id="awaDhILhFS4YZEdiU3oN-22" value="" style="rounded=0;whiteSpace=wrap;html=1;" vertex="1" parent="1">
          <mxGeometry x="320" y="511" width="160" height="30" as="geometry" />
        </mxCell>
        <mxCell id="awaDhILhFS4YZEdiU3oN-23" value="&lt;font style=&quot;font-size: 13px;&quot;&gt;+ value&lt;/font&gt;" style="text;html=1;strokeColor=none;fillColor=none;align=left;verticalAlign=middle;whiteSpace=wrap;rounded=0;fontColor=#143642;fontSize=18;" vertex="1" parent="1">
          <mxGeometry x="335.5" y="511" width="124.5" height="25" as="geometry" />
        </mxCell>
        <mxCell id="awaDhILhFS4YZEdiU3oN-24" value="" style="html=1;shadow=0;dashed=0;align=center;verticalAlign=middle;shape=mxgraph.arrows2.arrow;dy=0.6;dx=40;direction=south;notch=0;strokeColor=#0F8B8D;fontColor=#143642;fillColor=#FAE5C7;" vertex="1" parent="1">
          <mxGeometry x="390" y="370" width="20" height="70" as="geometry" />
        </mxCell>
        <mxCell id="awaDhILhFS4YZEdiU3oN-31" value="" style="rounded=0;whiteSpace=wrap;html=1;" vertex="1" parent="1">
          <mxGeometry x="354" y="570" width="100" height="40" as="geometry" />
        </mxCell>
        <mxCell id="awaDhILhFS4YZEdiU3oN-32" value="Address " style="text;html=1;strokeColor=none;fillColor=none;align=center;verticalAlign=middle;whiteSpace=wrap;rounded=0;fontColor=#143642;fontSize=18;" vertex="1" parent="1">
          <mxGeometry x="364" y="575" width="80" height="30" as="geometry" />
        </mxCell>
        <mxCell id="awaDhILhFS4YZEdiU3oN-33" value="" style="rounded=0;whiteSpace=wrap;html=1;" vertex="1" parent="1">
          <mxGeometry x="354" y="610" width="100" height="30" as="geometry" />
        </mxCell>
        <mxCell id="awaDhILhFS4YZEdiU3oN-34" value="&lt;font style=&quot;font-size: 13px;&quot;&gt;- value&lt;/font&gt;" style="text;html=1;strokeColor=none;fillColor=none;align=left;verticalAlign=middle;whiteSpace=wrap;rounded=0;fontColor=#143642;fontSize=18;" vertex="1" parent="1">
          <mxGeometry x="364" y="610" width="70" height="30" as="geometry" />
        </mxCell>
        <mxCell id="awaDhILhFS4YZEdiU3oN-35" value="" style="rounded=0;whiteSpace=wrap;html=1;" vertex="1" parent="1">
          <mxGeometry x="354" y="640" width="100" height="30" as="geometry" />
        </mxCell>
        <mxCell id="awaDhILhFS4YZEdiU3oN-36" value="&lt;font style=&quot;font-size: 13px;&quot;&gt;+ value&lt;/font&gt;" style="text;html=1;strokeColor=none;fillColor=none;align=left;verticalAlign=middle;whiteSpace=wrap;rounded=0;fontColor=#143642;fontSize=18;" vertex="1" parent="1">
          <mxGeometry x="364" y="640" width="60" height="30" as="geometry" />
        </mxCell>
        <mxCell id="awaDhILhFS4YZEdiU3oN-52" value="" style="rounded=0;whiteSpace=wrap;html=1;" vertex="1" parent="1">
          <mxGeometry x="473.75" y="570" width="100" height="40" as="geometry" />
        </mxCell>
        <mxCell id="awaDhILhFS4YZEdiU3oN-53" value="Phone " style="text;html=1;strokeColor=none;fillColor=none;align=center;verticalAlign=middle;whiteSpace=wrap;rounded=0;fontColor=#143642;fontSize=18;" vertex="1" parent="1">
          <mxGeometry x="483.75" y="576" width="80" height="30" as="geometry" />
        </mxCell>
        <mxCell id="awaDhILhFS4YZEdiU3oN-54" value="" style="rounded=0;whiteSpace=wrap;html=1;" vertex="1" parent="1">
          <mxGeometry x="473.75" y="610" width="100" height="30" as="geometry" />
        </mxCell>
        <mxCell id="awaDhILhFS4YZEdiU3oN-55" value="&lt;font style=&quot;font-size: 13px;&quot;&gt;- value&lt;/font&gt;" style="text;html=1;strokeColor=none;fillColor=none;align=left;verticalAlign=middle;whiteSpace=wrap;rounded=0;fontColor=#143642;fontSize=18;" vertex="1" parent="1">
          <mxGeometry x="483.75" y="610" width="70" height="30" as="geometry" />
        </mxCell>
        <mxCell id="awaDhILhFS4YZEdiU3oN-56" value="" style="rounded=0;whiteSpace=wrap;html=1;" vertex="1" parent="1">
          <mxGeometry x="473.75" y="640" width="100" height="30" as="geometry" />
        </mxCell>
        <mxCell id="awaDhILhFS4YZEdiU3oN-57" value="&lt;font style=&quot;font-size: 13px;&quot;&gt;+ value&lt;/font&gt;" style="text;html=1;strokeColor=none;fillColor=none;align=left;verticalAlign=middle;whiteSpace=wrap;rounded=0;fontColor=#143642;fontSize=18;" vertex="1" parent="1">
          <mxGeometry x="483.75" y="640" width="60" height="30" as="geometry" />
        </mxCell>
        <mxCell id="awaDhILhFS4YZEdiU3oN-58" value="" style="rounded=0;whiteSpace=wrap;html=1;" vertex="1" parent="1">
          <mxGeometry x="226.25" y="570" width="100" height="40" as="geometry" />
        </mxCell>
        <mxCell id="awaDhILhFS4YZEdiU3oN-59" value="Name  " style="text;html=1;strokeColor=none;fillColor=none;align=center;verticalAlign=middle;whiteSpace=wrap;rounded=0;fontColor=#143642;fontSize=18;" vertex="1" parent="1">
          <mxGeometry x="236.25" y="575" width="80" height="30" as="geometry" />
        </mxCell>
        <mxCell id="awaDhILhFS4YZEdiU3oN-60" value="" style="rounded=0;whiteSpace=wrap;html=1;" vertex="1" parent="1">
          <mxGeometry x="226.25" y="610" width="100" height="30" as="geometry" />
        </mxCell>
        <mxCell id="awaDhILhFS4YZEdiU3oN-61" value="&lt;font style=&quot;font-size: 13px;&quot;&gt;- value&lt;/font&gt;" style="text;html=1;strokeColor=none;fillColor=none;align=left;verticalAlign=middle;whiteSpace=wrap;rounded=0;fontColor=#143642;fontSize=18;" vertex="1" parent="1">
          <mxGeometry x="236.25" y="610" width="70" height="30" as="geometry" />
        </mxCell>
        <mxCell id="awaDhILhFS4YZEdiU3oN-62" value="" style="rounded=0;whiteSpace=wrap;html=1;" vertex="1" parent="1">
          <mxGeometry x="226.25" y="640" width="100" height="30" as="geometry" />
        </mxCell>
        <mxCell id="awaDhILhFS4YZEdiU3oN-63" value="&lt;font style=&quot;font-size: 13px;&quot;&gt;+ value&lt;/font&gt;" style="text;html=1;strokeColor=none;fillColor=none;align=left;verticalAlign=middle;whiteSpace=wrap;rounded=0;fontColor=#143642;fontSize=18;" vertex="1" parent="1">
          <mxGeometry x="236.25" y="640" width="60" height="30" as="geometry" />
        </mxCell>
        <mxCell id="awaDhILhFS4YZEdiU3oN-64" value="" style="rounded=0;whiteSpace=wrap;html=1;" vertex="1" parent="1">
          <mxGeometry x="590" y="570" width="100" height="40" as="geometry" />
        </mxCell>
        <mxCell id="awaDhILhFS4YZEdiU3oN-65" value="Email   " style="text;html=1;strokeColor=none;fillColor=none;align=center;verticalAlign=middle;whiteSpace=wrap;rounded=0;fontColor=#143642;fontSize=18;" vertex="1" parent="1">
          <mxGeometry x="600" y="576" width="80" height="30" as="geometry" />
        </mxCell>
        <mxCell id="awaDhILhFS4YZEdiU3oN-66" value="" style="rounded=0;whiteSpace=wrap;html=1;" vertex="1" parent="1">
          <mxGeometry x="590" y="610" width="100" height="30" as="geometry" />
        </mxCell>
        <mxCell id="awaDhILhFS4YZEdiU3oN-67" value="&lt;font style=&quot;font-size: 13px;&quot;&gt;- value&lt;/font&gt;" style="text;html=1;strokeColor=none;fillColor=none;align=left;verticalAlign=middle;whiteSpace=wrap;rounded=0;fontColor=#143642;fontSize=18;" vertex="1" parent="1">
          <mxGeometry x="600" y="610" width="70" height="30" as="geometry" />
        </mxCell>
        <mxCell id="awaDhILhFS4YZEdiU3oN-68" value="" style="rounded=0;whiteSpace=wrap;html=1;" vertex="1" parent="1">
          <mxGeometry x="590" y="640" width="100" height="30" as="geometry" />
        </mxCell>
        <mxCell id="awaDhILhFS4YZEdiU3oN-69" value="&lt;font style=&quot;font-size: 13px;&quot;&gt;+ value&lt;/font&gt;" style="text;html=1;strokeColor=none;fillColor=none;align=left;verticalAlign=middle;whiteSpace=wrap;rounded=0;fontColor=#143642;fontSize=18;" vertex="1" parent="1">
          <mxGeometry x="600" y="640" width="60" height="30" as="geometry" />
        </mxCell>
        <mxCell id="awaDhILhFS4YZEdiU3oN-70" value="" style="rounded=0;whiteSpace=wrap;html=1;" vertex="1" parent="1">
          <mxGeometry x="110" y="570" width="100" height="40" as="geometry" />
        </mxCell>
        <mxCell id="awaDhILhFS4YZEdiU3oN-71" value="Birthday " style="text;html=1;strokeColor=none;fillColor=none;align=center;verticalAlign=middle;whiteSpace=wrap;rounded=0;fontColor=#143642;fontSize=18;" vertex="1" parent="1">
          <mxGeometry x="120" y="575" width="80" height="30" as="geometry" />
        </mxCell>
        <mxCell id="awaDhILhFS4YZEdiU3oN-72" value="" style="rounded=0;whiteSpace=wrap;html=1;" vertex="1" parent="1">
          <mxGeometry x="110" y="610" width="100" height="30" as="geometry" />
        </mxCell>
        <mxCell id="awaDhILhFS4YZEdiU3oN-73" value="&lt;font style=&quot;font-size: 13px;&quot;&gt;- value&lt;/font&gt;" style="text;html=1;strokeColor=none;fillColor=none;align=left;verticalAlign=middle;whiteSpace=wrap;rounded=0;fontColor=#143642;fontSize=18;" vertex="1" parent="1">
          <mxGeometry x="120" y="610" width="70" height="30" as="geometry" />
        </mxCell>
        <mxCell id="awaDhILhFS4YZEdiU3oN-74" value="" style="rounded=0;whiteSpace=wrap;html=1;" vertex="1" parent="1">
          <mxGeometry x="110" y="640" width="100" height="30" as="geometry" />
        </mxCell>
        <mxCell id="awaDhILhFS4YZEdiU3oN-75" value="&lt;font style=&quot;font-size: 13px;&quot;&gt;+ value&lt;/font&gt;" style="text;html=1;strokeColor=none;fillColor=none;align=left;verticalAlign=middle;whiteSpace=wrap;rounded=0;fontColor=#143642;fontSize=18;" vertex="1" parent="1">
          <mxGeometry x="120" y="640" width="60" height="30" as="geometry" />
        </mxCell>
        <mxCell id="awaDhILhFS4YZEdiU3oN-78" value="" style="endArrow=classic;html=1;rounded=0;strokeColor=#A8201A;fontColor=#143642;fillColor=#FAE5C7;entryX=0.5;entryY=0;entryDx=0;entryDy=0;exitX=0;exitY=1;exitDx=0;exitDy=0;" edge="1" parent="1" source="awaDhILhFS4YZEdiU3oN-20" target="awaDhILhFS4YZEdiU3oN-58">
          <mxGeometry width="50" height="50" relative="1" as="geometry">
            <mxPoint x="310" y="510" as="sourcePoint" />
            <mxPoint x="260" y="560" as="targetPoint" />
          </mxGeometry>
        </mxCell>
        <mxCell id="awaDhILhFS4YZEdiU3oN-79" value="" style="endArrow=classic;html=1;rounded=0;strokeColor=#A8201A;fontColor=#143642;fillColor=#FAE5C7;exitX=0;exitY=1;exitDx=0;exitDy=0;entryX=0.5;entryY=0;entryDx=0;entryDy=0;" edge="1" parent="1" source="awaDhILhFS4YZEdiU3oN-18" target="awaDhILhFS4YZEdiU3oN-70">
          <mxGeometry width="50" height="50" relative="1" as="geometry">
            <mxPoint x="310" y="480" as="sourcePoint" />
            <mxPoint x="200" y="556" as="targetPoint" />
          </mxGeometry>
        </mxCell>
        <mxCell id="awaDhILhFS4YZEdiU3oN-80" value="" style="endArrow=classic;html=1;rounded=0;strokeColor=#A8201A;fontColor=#143642;fillColor=#FAE5C7;exitX=1;exitY=1;exitDx=0;exitDy=0;entryX=0.5;entryY=0;entryDx=0;entryDy=0;" edge="1" parent="1" source="awaDhILhFS4YZEdiU3oN-18" target="awaDhILhFS4YZEdiU3oN-64">
          <mxGeometry width="50" height="50" relative="1" as="geometry">
            <mxPoint x="500" y="480" as="sourcePoint" />
            <mxPoint x="600" y="556" as="targetPoint" />
          </mxGeometry>
        </mxCell>
        <mxCell id="awaDhILhFS4YZEdiU3oN-82" value="" style="endArrow=classic;html=1;rounded=0;strokeColor=#A8201A;fontColor=#143642;fillColor=#FAE5C7;entryX=0.5;entryY=0;entryDx=0;entryDy=0;exitX=1;exitY=0;exitDx=0;exitDy=0;" edge="1" parent="1" source="awaDhILhFS4YZEdiU3oN-22" target="awaDhILhFS4YZEdiU3oN-52">
          <mxGeometry width="50" height="50" relative="1" as="geometry">
            <mxPoint x="548.75" y="520" as="sourcePoint" />
            <mxPoint x="498.75" y="570" as="targetPoint" />
          </mxGeometry>
        </mxCell>
        <mxCell id="awaDhILhFS4YZEdiU3oN-83" value="" style="endArrow=classic;html=1;rounded=0;strokeColor=#A8201A;fontColor=#143642;fillColor=#FAE5C7;entryX=0.5;entryY=0;entryDx=0;entryDy=0;exitX=0.5;exitY=1;exitDx=0;exitDy=0;" edge="1" parent="1" source="awaDhILhFS4YZEdiU3oN-22" target="awaDhILhFS4YZEdiU3oN-31">
          <mxGeometry width="50" height="50" relative="1" as="geometry">
            <mxPoint x="330" y="521" as="sourcePoint" />
            <mxPoint x="286" y="580" as="targetPoint" />
          </mxGeometry>
        </mxCell>
        <mxCell id="awaDhILhFS4YZEdiU3oN-102" value="&lt;table align=&quot;right&quot; border=&quot;1&quot; width=&quot;100%&quot; height=&quot;100%&quot; cellpadding=&quot;4&quot; style=&quot;width:100%;height:100%;border-collapse:collapse;&quot;&gt;&lt;tbody&gt;&lt;tr&gt;&lt;th align=&quot;center&quot;&gt;&lt;b&gt;Record&lt;/b&gt;&lt;/th&gt;&lt;/tr&gt;&lt;tr&gt;&lt;td align=&quot;center&quot;&gt;Section 1.1&lt;br&gt;Section 1.2&lt;br&gt;Section 1.3&lt;/td&gt;&lt;/tr&gt;&lt;tr&gt;&lt;td align=&quot;center&quot;&gt;Section 2.1&lt;br&gt;Section 2.2&lt;br&gt;Section 2.3&lt;/td&gt;&lt;/tr&gt;&lt;/tbody&gt;&lt;/table&gt;" style="text;html=1;whiteSpace=wrap;strokeColor=default;fillColor=none;overflow=fill;fontColor=#143642;perimeterSpacing=5;strokeWidth=2;" vertex="1" parent="1">
          <mxGeometry x="316.25" y="720" width="180" height="180" as="geometry" />
        </mxCell>
      </root>
    </mxGraphModel>
  </diagram>
</mxfile>
